<?xml version="1.0" encoding="UTF-8"?>
<svg width="1065px" height="956px" viewBox="0 0 1065 956" version="1.1" xmlns="http://www.w3.org/2000/svg" xmlns:xlink="http://www.w3.org/1999/xlink">
    <title>Group 27</title>
    <g id="Page-1" stroke="none" stroke-width="1" fill="none" fill-rule="evenodd">
        <g id="Group-27" transform="translate(2.000000, 2.000000)" stroke-width="3">
            <polyline id="Path" stroke="#E1251B" points="673.40024 393 382 622.67754 510 747.008811 327 911.404564"></polyline>
            <polyline id="Path-2" stroke="#000000" points="229 883.230057 350 776.422256 201.11482 635.991625 123 707.157947"></polyline>
            <polyline id="Path-2" stroke="#E1251B" transform="translate(686.500000, 270.610841) rotate(3.000000) translate(-686.500000, -270.610841) " points="679 394.230057 800 287.422256 651.11482 146.991625 573 218.157947"></polyline>
            <polyline id="Path-3" stroke="#222222" points="374.5 516.951662 279.782943 598.215615 204 529.951662"></polyline>
            <polyline id="Path" stroke="#00B451" points="1061.40024 434 770 663.67754 898 788.008811 715 952.404564"></polyline>
            <polyline id="Path-2" stroke="#000000" points="617 924.230057 738 817.422256 589.11482 676.991625 511 748.157947"></polyline>
            <polyline id="Path-3" stroke="#000000" points="762.5 557.951662 667.782943 639.215615 592 570.951662"></polyline>
            <polyline id="Path-3" stroke="#000000" transform="translate(739.250000, 451.583639) rotate(180.000000) translate(-739.250000, -451.583639) " points="824.5 410.951662 729.782943 492.215615 654 423.951662"></polyline>
            <polyline id="Path" stroke="#222222" points="719.40024 0 428 229.67754 556 354.008811 373 518.404564"></polyline>
            <polyline id="Path" stroke="#00B451" points="550.40024 13 259 242.67754 387 367.008811 204 531.404564"></polyline>
            <polyline id="Path-2" stroke="#222222" points="106 503.230057 227 396.422256 78.1148198 255.991625 1.26010313e-14 327.157947"></polyline>
            <polyline id="Path-3" stroke="#E1251B" points="251.5 136.951662 156.782943 218.215615 81 149.951662"></polyline>
        </g>
    </g>
</svg>