<?xml version="1.0" encoding="UTF-8"?>
<svg width="225px" height="140px" viewBox="0 0 225 140" version="1.1" xmlns="http://www.w3.org/2000/svg" xmlns:xlink="http://www.w3.org/1999/xlink">
    <title>Group 2</title>
    <g id="Page-1" stroke="none" stroke-width="1" fill="none" fill-rule="evenodd">
        <g id="Group-2" transform="translate(0, 0.4496)">
            <circle id="Oval" fill="#FFFFFF" fill-rule="nonzero" cx="110.071838" cy="69.2964646" r="69.2964646"></circle>
            <circle id="Oval" fill="#E0E7F3" fill-rule="nonzero" cx="109.5" cy="69.0503794" r="62.5"></circle>
            <path d="M72.0007777,74.5503794 L72.0007777,74.5503794 C74.7588318,74.5413856 76.9923139,72.1896011 77,69.2863598 L77,63.8143991 C76.9923139,60.9111578 74.7588318,58.5593733 72.0007777,58.5503794 L72.0007777,58.5503794 C69.2421162,58.5584745 67.0076903,60.910521 67,63.8143991 L67,69.2863598 C67.0076903,72.1902378 69.2421162,74.5422843 72.0007777,74.5503794 L72.0007777,74.5503794 Z" id="Path" fill="#1A124C" fill-rule="nonzero"></path>
            <rect id="Rectangle" fill="#1A124C" fill-rule="nonzero" x="91" y="79.5503794" width="35" height="20" rx="10"></rect>
            <rect id="Rectangle" fill="#518E7B" fill-rule="nonzero" x="74" y="48.5503794" width="70" height="40" rx="20"></rect>
            <path d="M112,29.6598198 L112,41.440939 C111.995111,43.1561323 110.654825,44.5453124 109,44.5503794 L109,44.5503794 C107.345175,44.5453124 106.004889,43.1561323 106,41.440939 L106,29.6598198 C106.004889,27.9446266 107.345175,26.5554465 109,26.5503794 L109,26.5503794 C110.654825,26.5554465 111.995111,27.9446266 112,29.6598198 Z" id="Path" fill="#1A124C" fill-rule="nonzero"></path>
            <path d="M109,19.5503794 C111.761424,19.5503794 114,21.7889557 114,24.5503794 L114,30.5503794 C114,33.3118032 111.761424,35.5503794 109,35.5503794 C106.238576,35.5503794 104,33.3118032 104,30.5503794 L104,24.5503794 C104,21.7889557 106.238576,19.5503794 109,19.5503794 Z" id="Rectangle" fill="#F1A953" fill-rule="nonzero" transform="translate(109, 27.5504) rotate(-90) translate(-109, -27.5504)"></path>
            <path d="M109.663669,131.550379 C124.426314,131.569388 138.717911,126.374046 150,116.887089 C145.984188,109.784322 133.987448,93.4954112 108.388564,93.5503794 C83.6899356,93.6040958 72.1709757,108.452553 68,115.746667 C79.4628495,125.943896 94.2971845,131.570783 109.663669,131.550379 L109.663669,131.550379 Z" id="Path" fill="#518E7B" fill-rule="nonzero"></path>
            <path d="M110.243881,132.550379 C120.628399,132.564788 130.853586,129.907635 140,124.817789 C136.204498,118.683826 126.053844,105.743574 108.3091,106.589968 C92.9218881,107.324575 84.4051517,119.011205 81,125.087677 C90.0167414,129.999326 100.054696,132.560876 110.243881,132.550379 L110.243881,132.550379 Z" id="Path" fill="#81BC8C" fill-rule="nonzero"></path>
            <path d="M103.538578,40.5503794 L116.462938,40.5503794 C119.520973,40.5503794 122,43.0831836 122,46.2075556 L122,48.5503794 L98,48.5503794 L98,46.2075556 C98,44.7069107 98.5835754,43.267751 99.622304,42.2067802 C100.661032,41.1458093 102.069795,40.5499686 103.538578,40.5503794 Z" id="Path" fill="#81BC8C" fill-rule="nonzero"></path>
            <ellipse id="Oval" fill="#D0DAED" fill-rule="nonzero" transform="translate(108.9629, 109.1148) rotate(-15.0049) translate(-108.9629, -109.1148)" cx="108.962924" cy="109.11484" rx="10.0608856" ry="10.2926677"></ellipse>
            <rect id="Rectangle" fill="#A5BFDF" fill-rule="nonzero" x="81" y="50.5503794" width="57" height="33" rx="16.5"></rect>
            <rect id="Rectangle" fill="#D0DAED" fill-rule="nonzero" x="83" y="57.5503794" width="52" height="20" rx="10"></rect>
            <circle id="Oval" fill="#1A124C" fill-rule="nonzero" cx="93" cy="66.5503794" r="3"></circle>
            <path d="M105.069727,68.5503794 L111.93009,68.5503794 C112.269073,68.5490274 112.588425,68.7294988 112.790308,69.0365101 C112.99219,69.3435213 113.052537,69.7404764 112.95286,70.1057597 C112.454477,71.884259 111.251132,74.5503794 108.516521,74.5503794 C105.781911,74.5503794 104.562676,71.8924024 104.049846,70.1155317 C103.94694,69.749534 104.005317,69.3501332 104.206942,69.0407118 C104.408568,68.7312904 104.729177,68.5490868 105.069727,68.5503794 L105.069727,68.5503794 Z" id="Path" fill="#1A124C" fill-rule="nonzero"></path>
            <polygon id="Path" fill="#1A124C" fill-rule="nonzero" points="69.0282828 43.5503794 71 55.5503794 55 48.4509746"></polygon>
            <path d="M18.7553997,49.5503794 L56.2446003,49.5503794 C66.5610729,49.5503794 75,41.2263686 75,31.0503794 C75,20.8759121 66.5610729,12.5503794 56.2446003,12.5503794 L18.7553997,12.5503794 C8.44046982,12.5503794 0,20.8759121 0,31.0503794 C0.00154276546,41.2263686 8.44201259,49.5503794 18.7553997,49.5503794 Z" id="Path" fill="#518E7B" fill-rule="nonzero"></path>
            <path d="M70.1559309,18.5503794 C71.1915155,20.8872436 71.7259457,23.4131873 71.7251141,25.9670051 L71.7251141,25.9670051 C71.7251141,36.1681076 63.3331284,44.5154351 53.0774501,44.5154351 L15.7974613,44.5154351 C10.538067,44.5111713 5.52590847,42.294168 2,38.4124722 C4.89140796,44.9487454 11.4703197,49.5503794 19.0784807,49.5503794 L56.3523339,49.5503794 C66.6095461,49.5503794 75,41.2045777 75,31.0019495 L75,31.0019495 C75.0022108,26.3959159 73.2746156,21.9551697 70.1559309,18.5503794 L70.1559309,18.5503794 Z" id="Path" fill="#1A124C" fill-rule="nonzero"></path>
            <polygon id="Path" fill="#1A124C" fill-rule="nonzero" transform="translate(164, 60.5504) scale(-1, 1) translate(-164, -60.5504)" points="170.028283 54.5503794 172 66.5503794 156 59.4509746"></polygon>
            <path d="M168.7554,60.5503794 L206.2446,60.5503794 C216.561073,60.5503794 225,52.2263686 225,42.0503794 C225,31.8759121 216.561073,23.5503794 206.2446,23.5503794 L168.7554,23.5503794 C158.44047,23.5503794 150,31.8759121 150,42.0503794 C150.001543,52.2263686 158.442013,60.5503794 168.7554,60.5503794 Z" id="Path" fill="#518E7B" fill-rule="nonzero" transform="translate(187.5, 42.0504) scale(-1, 1) translate(-187.5, -42.0504)"></path>
            <path d="M219.725112,36.9670051 C219.725112,47.1681076 211.333126,55.5154351 201.077448,55.5154351 L163.797459,55.5154351 C158.538065,55.5111713 153.525906,53.294168 149.999998,49.4124722 C152.891406,55.9487454 159.470318,60.5503794 167.078479,60.5503794 L204.352332,60.5503794 C214.609544,60.5503794 222.999998,52.2045777 222.999998,42.0019495 C223.002209,37.3959159 221.274613,32.9551697 218.155929,29.5503794 C219.191513,31.8872436 219.725944,34.4131873 219.725112,36.9670051 Z" id="Path" fill="#1A124C" fill-rule="nonzero" transform="translate(186.5, 45.0504) scale(-1, 1) translate(-186.5, -45.0504)"></path>
            <text id="السلام-عليكم" font-family="GESSTwoBold-Bold, GE SS Two" font-size="8" font-weight="bold" fill="#FFFFFF">
                <tspan x="7" y="31.5503794">السلام عليكم</tspan>
            </text>
            <text id="Welcome" font-family="Helvetica-Bold, Helvetica" font-size="8" font-weight="bold" letter-spacing="0.7" fill="#FFFFFF">
                <tspan x="170" y="45.5503794">Welcome</tspan>
            </text>
            <path d="M146,74.5503794 L146,74.5503794 C143.242372,74.5422879 141.008543,72.1909943 141,69.2874585 L141,63.8149378 C141.007689,60.9107626 143.241767,58.5584754 146,58.5503794 L146,58.5503794 C148.758233,58.5584754 150.992311,60.9107626 151,63.8149378 L151,69.2874585 C150.991457,72.1909943 148.757628,74.5422879 146,74.5503794 Z" id="Path" fill="#1A124C" fill-rule="nonzero"></path>
            <path d="M97.6779185,22.5503794 C97.608354,22.5502995 97.5432031,22.514447 97.50338,22.4543309 L94.0388688,17.2742214 C93.9949984,17.2084997 93.9877274,17.1231029 94.0197946,17.0501989 C94.0518618,16.977295 94.1183955,16.9279598 94.1943331,16.9207776 C94.2702707,16.9135953 94.3440754,16.949657 94.3879457,17.0153787 L97.8524569,22.1954882 C97.8976097,22.2643745 97.9029828,22.3539084 97.866425,22.4282419 C97.8298672,22.5025754 97.7573539,22.5495583 97.6779185,22.5503794 L97.6779185,22.5503794 Z M118.228664,22.3615382 L121.95421,17.3865493 C122.027146,17.2889984 122.011241,17.1476007 121.918685,17.0707287 C121.826129,16.9938567 121.691971,17.0106204 121.619035,17.1081714 L117.893488,22.0831603 C117.858407,22.1299831 117.842438,22.1895901 117.849103,22.2488363 C117.855767,22.3080825 117.884517,22.3621016 117.929014,22.3989809 C117.966382,22.4300488 118.012711,22.4467079 118.060304,22.4462029 C118.12573,22.446485 118.187714,22.4153193 118.228664,22.3615382 L118.228664,22.3615382 Z M108.469956,18.3486627 C108.587677,18.3486627 108.683109,18.2480808 108.683109,18.1240068 L108.683109,11.7750353 C108.683109,11.6509613 108.587677,11.5503794 108.469956,11.5503794 L108.469956,11.5503794 C108.352235,11.5503794 108.256803,11.6509613 108.256803,11.7750353 L108.256803,18.1240068 C108.256803,18.2480808 108.352235,18.3486627 108.469956,18.3486627 L108.469956,18.3486627 Z" id="Shape" fill="#34509C" fill-rule="nonzero"></path>
            <circle id="Oval" fill="#1A124C" fill-rule="nonzero" cx="126" cy="66.5503794" r="3"></circle>
        </g>
    </g>
</svg>